# xmcd
#
# Track frame offsets: 
#        150
#        12133
#        22215
#        33350
#        41863
#        58248
#        67318
#        80443
#        91495
#        100780
#        111090
#        124025
#        134560
#        145833
#        154190
#        165585
#        175145
#        188943
#        199788
#        209035
#        220025
#        227353
#        245035
#        257630
#
# Disc length: 3651 seconds
#
# Revision: 2
# Processed by: cddbd v1.5.2PL0 Copyright (c) Steve Scherf et al.
# Submitted via: ExactAudioCopy v1.3
#
DISCID=630e4118
DTITLE=Various Artist - 24 Greatest Bluegrass Hits
DYEAR=1989
DGENRE=Bluegrass
TTITLE0=Osborne Brothers - Rocky Top
TTITLE1=Don Reno and Bill Harrel  and Tennessee Cut-Ups - I Know You Are M
TTITLE1=arried
TTITLE2=Lester Flatt and Nashville Grass - Why Did You Wander?
TTITLE3=Bennie Martin - Blue Moon Of Kentucky
TTITLE4=Osborne Brothers - I Hear A Sweet Voice Calling
TTITLE5=The Pinnacle Boys - Scotland
TTITLE6=Lester Flatt and Nashville Grass - Cabin On The Hill
TTITLE7=Osborne Brothers - Tennessee Hound Dog
TTITLE8=Don Reno and Bill Harrel  and Tennessee Cut-Ups - Little Rock Geta
TTITLE8=way
TTITLE9=Mac Wiseman - Love Letters In The Sand
TTITLE10=Carl Story and His Rambling Mountaineers - My Lord Keeps A Reco
TTITLE10=rd
TTITLE11=Don Reno and Tennessee Cut-Ups - Are You Missing Me
TTITLE12=Osborne Brothers - Your Love Is Like A Flower
TTITLE13=Bennie Martin - Foggy Mountain Breakdown
TTITLE14=The Pinnacle Boys - If I Should Wander Back Tonight
TTITLE15=Carl Story and His Rambling Mountaineers - Light At The River
TTITLE16=Mac Wiseman - I Wonder How The Old Folks Are At Home
TTITLE17=Osborne Brothers - Sunny Side Of The Mountain
TTITLE18=Mac Wiseman and Jimmie Brown - The Newsboy
TTITLE19=Osborne Brothers - Pain In My Heart
TTITLE20=Lester Flatt and Nashville Grass - Randy Lynn Rag
TTITLE21=Osborne Brothers - White Dove
TTITLE22=Carl Story and His Rambling Mountaineers - Rank Strangers
TTITLE23=Osborne Brothers - A Vision Of Mother
EXTD=
EXTT0=
EXTT1=
EXTT2=
EXTT3=
EXTT4=
EXTT5=
EXTT6=
EXTT7=
EXTT8=
EXTT9=
EXTT10=
EXTT11=
EXTT12=
EXTT13=
EXTT14=
EXTT15=
EXTT16=
EXTT17=
EXTT18=
EXTT19=
EXTT20=
EXTT21=
EXTT22=
EXTT23=
PLAYORDER=
